<svg width="18" height="18" viewBox="0 0 18 18" fill="none" xmlns="http://www.w3.org/2000/svg">
<path d="M12.4916 0.666748H5.50829C2.47496 0.666748 0.666626 2.47508 0.666626 5.50841V12.4834C0.666626 15.5251 2.47496 17.3334 5.50829 17.3334H12.4833C15.5166 17.3334 17.325 15.5251 17.325 12.4917V5.50841C17.3333 2.47508 15.525 0.666748 12.4916 0.666748ZM12.9833 7.08341L8.25829 11.8084C8.14163 11.9251 7.98329 11.9917 7.81663 11.9917C7.64996 11.9917 7.49163 11.9251 7.37496 11.8084L5.01663 9.45008C4.77496 9.20842 4.77496 8.80841 5.01663 8.56675C5.25829 8.32508 5.65829 8.32508 5.89996 8.56675L7.81663 10.4834L12.1 6.20008C12.3416 5.95842 12.7416 5.95842 12.9833 6.20008C13.225 6.44175 13.225 6.83341 12.9833 7.08341Z" fill="#B3FF78"/>
</svg>
