<svg width="22" height="22" viewBox="0 0 22 22" fill="none" xmlns="http://www.w3.org/2000/svg">
<g clip-path="url(#clip0_1919_4296)">
<mask id="mask0_1919_4296" style="mask-type:luminance" maskUnits="userSpaceOnUse" x="0" y="0" width="22" height="22">
<path d="M11 22C17.0751 22 22 17.0751 22 11C22 4.92487 17.0751 0 11 0C4.92487 0 0 4.92487 0 11C0 17.0751 4.92487 22 11 22Z" fill="white"/>
</mask>
<g mask="url(#mask0_1919_4296)">
<path d="M11 0H22V2.75L20.625 4.125L22 5.5V8.25L20.625 9.625L22 11V13.75L20.625 15.125L22 16.5V19.25L11 20.625L0 19.25V16.5L1.375 15.125L0 13.75V11L11 0Z" fill="#F8F8F8"/>
<path d="M9.625 2.75H22V5.5H9.625V2.75ZM9.625 8.25H22V11H11L9.625 8.25ZM0 13.75H22V16.5H0V13.75ZM0 19.25H22V22H0V19.25Z" fill="#D80027"/>
<path d="M0 0H11V11H0V0Z" fill="#0052B4"/>
<path d="M8.03516 10.4414L10.4844 8.67969H7.47656L9.92578 10.4414L8.98047 7.5625L8.03516 10.4414ZM4.55469 10.4414L7.00391 8.67969H3.99609L6.44531 10.4414L5.5 7.5625L4.55469 10.4414ZM1.07422 10.4414L3.52344 8.67969H0.515625L2.96484 10.4414L2.01953 7.5625L1.07422 10.4414ZM8.03516 6.96094L10.4844 5.19922H7.47656L9.92578 6.96094L8.98047 4.08203L8.03516 6.96094ZM4.55469 6.96094L7.00391 5.19922H3.99609L6.44531 6.96094L5.5 4.08203L4.55469 6.96094ZM1.07422 6.96094L3.52344 5.19922H0.515625L2.96484 6.96094L2.01953 4.08203L1.07422 6.96094ZM8.03516 3.4375L10.4844 1.67578H7.47656L9.92578 3.4375L8.98047 0.558594L8.03516 3.4375ZM4.55469 3.4375L7.00391 1.67578H3.99609L6.44531 3.4375L5.5 0.558594L4.55469 3.4375ZM1.07422 3.4375L3.52344 1.67578H0.515625L2.96484 3.4375L2.01953 0.558594L1.07422 3.4375Z" fill="#F8F8F8"/>
</g>
</g>
<defs>
<clipPath id="clip0_1919_4296">
<rect width="22" height="22" fill="white"/>
</clipPath>
</defs>
</svg>
