<svg width="23" height="22" viewBox="0 0 23 22" fill="none" xmlns="http://www.w3.org/2000/svg">
<path d="M3.30867 6.88421C4.07134 5.36551 5.24134 4.08884 6.68789 3.19689C8.13445 2.30493 9.80056 1.83284 11.5 1.83337C13.9704 1.83337 16.0457 2.74179 17.6325 4.22129L15.0044 6.85029C14.0538 5.94187 12.8457 5.47896 11.5 5.47896C9.11208 5.47896 7.09083 7.09229 6.37125 9.25837C6.18792 9.80837 6.08342 10.395 6.08342 11C6.08342 11.605 6.18792 12.1917 6.37125 12.7417C7.09175 14.9087 9.11208 16.5211 11.5 16.5211C12.7329 16.5211 13.7825 16.1957 14.6038 15.6457C15.08 15.3322 15.4876 14.9254 15.8021 14.4499C16.1166 13.9744 16.3314 13.4401 16.4335 12.8792H11.5V9.33354H20.1332C20.2413 9.93304 20.3 10.5582 20.3 11.2081C20.3 14.0003 19.3008 16.3506 17.5665 17.9456C16.0503 19.3463 13.975 20.1667 11.5 20.1667C10.2961 20.1672 9.10387 19.9304 7.9915 19.4699C6.87913 19.0094 5.86841 18.3342 5.01711 17.4829C4.16581 16.6316 3.49062 15.6209 3.03012 14.5085C2.56962 13.3962 2.33285 12.204 2.33333 11C2.33333 9.52054 2.68717 8.12171 3.30867 6.88421Z" fill="white"/>
</svg>
