<svg width="23" height="22" viewBox="0 0 23 22" fill="none" xmlns="http://www.w3.org/2000/svg">
<path d="M16.1292 18.59C15.2308 19.4608 14.25 19.3233 13.3058 18.9108C12.3067 18.4892 11.39 18.4708 10.3358 18.9108C9.01584 19.4792 8.31917 19.3142 7.53084 18.59C3.0575 13.9792 3.7175 6.9575 8.79584 6.70083C10.0333 6.765 10.895 7.37917 11.6192 7.43417C12.7008 7.21417 13.7367 6.58167 14.8917 6.66417C16.2758 6.77417 17.3208 7.32417 18.0083 8.31417C15.1483 10.0283 15.8267 13.7958 18.4483 14.85C17.9258 16.225 17.2475 17.5908 16.12 18.5992L16.1292 18.59ZM11.5275 6.64583C11.39 4.60167 13.0492 2.915 14.9558 2.75C15.2217 5.115 12.8108 6.875 11.5275 6.64583Z" fill="white"/>
</svg>
