<svg width="20" height="20" viewBox="0 0 20 20" fill="none" xmlns="http://www.w3.org/2000/svg">
<path d="M10.4416 17.0167H5.17496C2.54163 17.0167 1.66663 15.2667 1.66663 13.5084V6.49173C1.66663 3.8584 2.54163 2.9834 5.17496 2.9834H10.4416C13.075 2.9834 13.95 3.8584 13.95 6.49173V13.5084C13.95 16.1417 13.0666 17.0167 10.4416 17.0167Z" stroke="black" stroke-width="1.2" stroke-linecap="round" stroke-linejoin="round"/>
<path d="M16.2666 14.2501L13.95 12.6251V7.36678L16.2666 5.74178C17.4 4.95011 18.3333 5.43344 18.3333 6.82511V13.1751C18.3333 14.5668 17.4 15.0501 16.2666 14.2501Z" stroke="black" stroke-width="1.2" stroke-linecap="round" stroke-linejoin="round"/>
<path d="M9.58337 9.16699C10.2737 9.16699 10.8334 8.60735 10.8334 7.91699C10.8334 7.22664 10.2737 6.66699 9.58337 6.66699C8.89302 6.66699 8.33337 7.22664 8.33337 7.91699C8.33337 8.60735 8.89302 9.16699 9.58337 9.16699Z" stroke="black" stroke-width="1.2" stroke-linecap="round" stroke-linejoin="round"/>
</svg>
