<svg width="24" height="24" viewBox="0 0 24 24" fill="none" xmlns="http://www.w3.org/2000/svg">
<circle cx="12" cy="13" r="4" stroke="white" stroke-width="2"/>
<path fill-rule="evenodd" clip-rule="evenodd" d="M16 6H19C20.1046 6 21 6.89543 21 8V18C21 19.1046 20.1046 20 19 20H5C3.89543 20 3 19.1046 3 18V8C3 6.89543 3.89543 6 5 6H8V4H5C2.79086 4 1 5.79086 1 8V18C1 20.2091 2.79086 22 5 22H19C21.2091 22 23 20.2091 23 18V8C23 5.79086 21.2091 4 19 4H16V6Z" fill="white"/>
<path fill-rule="evenodd" clip-rule="evenodd" d="M9.5 3.6H14.5L15.3333 6H17L16.1667 3.6C16.1667 2.71634 15.4205 2 14.5 2H9.5C8.57953 2 7.83333 2.71634 7.83333 3.6L7 6H8.66667L9.5 3.6Z" fill="white"/>
</svg>
