<svg width="25" height="24" viewBox="0 0 25 24" fill="none" xmlns="http://www.w3.org/2000/svg">
<path d="M12.5 13.5C13.3284 13.5 14 12.8284 14 12C14 11.1716 13.3284 10.5 12.5 10.5C11.6716 10.5 11 11.1716 11 12C11 12.8284 11.6716 13.5 12.5 13.5Z" fill="white"/>
<path d="M6.5 13.5C7.32843 13.5 8 12.8284 8 12C8 11.1716 7.32843 10.5 6.5 10.5C5.67157 10.5 5 11.1716 5 12C5 12.8284 5.67157 13.5 6.5 13.5Z" fill="white"/>
<path d="M18.5 13.5C19.3284 13.5 20 12.8284 20 12C20 11.1716 19.3284 10.5 18.5 10.5C17.6716 10.5 17 11.1716 17 12C17 12.8284 17.6716 13.5 18.5 13.5Z" fill="white"/>
</svg>
