<svg width="20" height="20" viewBox="0 0 20 20" fill="none" xmlns="http://www.w3.org/2000/svg">
<path d="M7.49998 10.0001C7.49998 10.5526 7.28049 11.0825 6.88979 11.4732C6.49908 11.8639 5.96918 12.0834 5.41665 12.0834C4.86411 12.0834 4.33421 11.8639 3.94351 11.4732C3.55281 11.0825 3.33331 10.5526 3.33331 10.0001C3.33331 9.44755 3.55281 8.91764 3.94351 8.52694C4.33421 8.13624 4.86411 7.91675 5.41665 7.91675C5.96918 7.91675 6.49908 8.13624 6.88979 8.52694C7.28049 8.91764 7.49998 9.44755 7.49998 10.0001Z" stroke="white" stroke-width="1.5"/>
<path d="M11.6667 5.41675L7.5 8.33341M11.6667 14.5834L7.5 11.6667" stroke="white" stroke-width="1.5" stroke-linecap="round"/>
<path d="M15.8333 15.4167C15.8333 15.9692 15.6138 16.4991 15.2231 16.8898C14.8324 17.2805 14.3025 17.5 13.75 17.5C13.1974 17.5 12.6675 17.2805 12.2768 16.8898C11.8861 16.4991 11.6666 15.9692 11.6666 15.4167C11.6666 14.8641 11.8861 14.3342 12.2768 13.9435C12.6675 13.5528 13.1974 13.3333 13.75 13.3333C14.3025 13.3333 14.8324 13.5528 15.2231 13.9435C15.6138 14.3342 15.8333 14.8641 15.8333 15.4167ZM15.8333 4.58333C15.8333 5.13587 15.6138 5.66577 15.2231 6.05647C14.8324 6.44717 14.3025 6.66667 13.75 6.66667C13.1974 6.66667 12.6675 6.44717 12.2768 6.05647C11.8861 5.66577 11.6666 5.13587 11.6666 4.58333C11.6666 4.0308 11.8861 3.50089 12.2768 3.11019C12.6675 2.71949 13.1974 2.5 13.75 2.5C14.3025 2.5 14.8324 2.71949 15.2231 3.11019C15.6138 3.50089 15.8333 4.0308 15.8333 4.58333Z" stroke="white" stroke-width="1.5"/>
</svg>
